<mxfile host="drawio-plugin" modified="2024-02-28T02:00:20.562Z" agent="5.0 (Windows NT 10.0; Win64; x64) AppleWebKit/537.36 (KHTML, like Gecko) Chrome/111.0.0.0 Safari/537.36" version="20.5.3" etag="kxj2qXahpjA5FI_3nunC" type="embed"><diagram id="NaPzPo9P2hb9uLGMV61q" name="Page-1"><mxGraphModel dx="2519" dy="1110" grid="1" gridSize="10" guides="1" tooltips="1" connect="1" arrows="1" fold="1" page="1" pageScale="1" pageWidth="850" pageHeight="1100" math="0" shadow="0"><root><mxCell id="0"/><mxCell id="1" parent="0"/><mxCell id="11" value="" style="edgeStyle=segmentEdgeStyle;endArrow=classic;html=1;rounded=0;exitX=0.5;exitY=1;exitDx=0;exitDy=0;entryX=0;entryY=0.5;entryDx=0;entryDy=0;" edge="1" parent="1" source="8" target="12"><mxGeometry width="50" height="50" relative="1" as="geometry"><mxPoint x="150" y="230" as="sourcePoint"/><mxPoint x="230" y="300" as="targetPoint"/><Array as="points"><mxPoint x="160" y="170"/><mxPoint x="160" y="300"/></Array></mxGeometry></mxCell><mxCell id="12" value="&amp;nbsp;a user can apply to be a part of a project&lt;br&gt;pending status&lt;br&gt;accepted status&lt;br&gt;rejected status" style="shape=ext;double=1;rounded=1;whiteSpace=wrap;html=1;" vertex="1" parent="1"><mxGeometry x="230" y="260" width="280" height="80" as="geometry"/></mxCell><mxCell id="13" value="" style="group" vertex="1" connectable="0" parent="1"><mxGeometry x="30" y="90" width="250" height="80" as="geometry"/></mxCell><mxCell id="8" value="project&lt;br&gt;name&lt;br&gt;description&lt;br&gt;status" style="shape=ext;double=1;rounded=1;whiteSpace=wrap;html=1;" vertex="1" parent="13"><mxGeometry width="250" height="80" as="geometry"/></mxCell><mxCell id="10" value="statuses:&lt;br&gt;open&lt;br&gt;closed" style="text;html=1;align=center;verticalAlign=middle;resizable=0;points=[];autosize=1;strokeColor=none;fillColor=none;" vertex="1" parent="13"><mxGeometry x="160" y="10" width="70" height="60" as="geometry"/></mxCell></root></mxGraphModel></diagram></mxfile>